#!OML:ASF E:/inclinewalkrobotboard/Project1/Captureday1/Session1/subject1.ASF
:FULLY-SPECIFIED
:DEGREES
176
root 0 0 0 45.01853095111984 -47.136934046559105 -18.510856569623282
lowerback -6.50320008533186 3.6039288753540775 -0.481811339754576
upperback -13.44224392571875 4.3119009830921975 -0.07959872127435386
thorax -11.036323707920916 2.1123085575756333 0.6801618801149214
lowerneck -11.43578652296493 6.759197785007664 4.437369651796087
upperneck 18.190282305885766 7.228135310747394 7.278746303873401
head 7.640336931253543 4.2254527047544395 2.1609737739138826
rclavicle 9.04545397977655E-16 -1.822492105605284E-15
rhumerus 8.033318620698438 -22.472012094057888 -48.51257896084523
rradius 27.899275638632048
rwrist 21.348130732404748
rhand 0.8613599165389658 7.336706918645266
rfingers 7.125020000000029
rthumb 26.47805556594448 -19.711483051417822
lclavicle 1.4114308702570525E-15 -9.291572795482917E-16
lhumerus -10.49841071899571 3.9578287955178815 51.22072997029234
lradius 35.563557206761836
lwrist -7.903993157415896
lhand -1.773851616565194 23.34690903918796
lfingers 7.125019999999976
lthumb 23.50767089499286 50.524622865355106
rfemur 58.991852783458384 -81.99619277200568 -56.18199485554122
rtibia 40.21324945842324
rfoot -18.428619731130805 -17.982781364981594
rtoes 21.64068425632131
lfemur -44.78489213522615 8.237346646475546 -27.131905665289324
ltibia 44.06496442865885
lfoot -22.786926603323796 14.930863258700985
ltoes 10.896870213796415
177
root 0 0 0 45.010265519834384 -47.13248207640105 -18.507651527980656
lowerback -6.4998619600010725 3.603430745603633 -0.4821990196144365
upperback -13.440411290596096 4.311080336985377 -0.07969369653494995
thorax -11.036084172774293 2.11195116972098 0.6801491459495583
lowerneck -11.43650915106749 6.7585915281218485 4.436798261692415
upperneck 18.18919955628004 7.227432090409907 7.278181535260847
head 7.64003752691117 4.2250655198431195 2.160826837633473
rclavicle 9.052822815638197E-16 -1.823070694376909E-15
rhumerus 8.012205447452736 -22.471282342024907 -48.5160511930912
rradius 27.902977707987603
rwrist 21.336237248047937
rhand 0.8526614002617858 7.3450560384522765
rfingers 7.125020000000029
rthumb 26.469750355313714 -19.70450176211049
lclavicle 1.4153087811173295E-15 -9.272529444288115E-16
lhumerus -10.508769908782549 3.9478027562419076 51.24587100933682
lradius 35.56916966191668
lwrist -7.8880772494274645
lhand -1.7770075097862534 23.34453857835571
lfingers 7.125019999999976
lthumb 23.503473074069667 50.52232514542638
rfemur 58.92896746253286 -81.92710769298512 -56.114427361322726
rtibia 40.21373643628352
rfoot -18.426445672533166 -17.97461645966966
rtoes 21.63504116222039
lfemur -44.76451772601189 8.230146205165159 -27.129015163055655
ltibia 44.05961990886372
lfoot -22.77906208167384 14.920895168242598
ltoes 10.887478797409656
178
root 0 0 0 45.03740178036938 -47.149019134844536 -18.517461283282802
lowerback -6.510610057384318 3.604292698069119 -0.4820333256747505
upperback -13.44860104416799 4.312649575566637 -0.07909244923471404
thorax -11.039111266780619 2.1127777716580365 0.6812911055329303
lowerneck -11.432416526772334 6.761802396664932 4.438649826214598
upperneck 18.18972852065319 7.231281599958656 7.281752481651205
head 7.639671725960656 4.2271398027266684 2.1618501934327807
rclavicle 9.027485214125294E-16 -1.8221734931207167E-15
rhumerus 8.0654896704531 -22.471775954488734 -48.5060928761318
rradius 27.89222322698703
rwrist 21.364801267014197
rhand 0.8772883369181752 7.322015233828287
rfingers 7.12502000000003
rthumb 26.49309866555044 -19.723733204927054
lclavicle 1.4034632398522252E-15 -9.314803422220277E-16
lhumerus -10.479463356892602 3.9730454480131807 51.17729205402209
lradius 35.55574083009795
lwrist -7.927918066801159
lhand -1.7661074944685424 23.35095234145032
lfingers 7.125019999999976
lthumb 23.516654146069385 50.527946630224186
rfemur 59.09025722779088 -82.11069613515792 -56.29508134152415
rtibia 40.21353886660153
rfoot -18.43786395377959 -17.9969299168346
rtoes 21.657770280319593
lfemur -44.8299048810308 8.254099079115433 -27.13805117706635
ltibia 44.0774728543847
lfoot -22.806397204569755 14.954309407510006
ltoes 10.91950399869928
179
root 0 0 0 45.02467270229082 -47.139348443322405 -18.51313266699206
lowerback -6.505892198310879 3.6041241869323124 -0.48162322273825847
upperback -13.443943371241023 4.3123212335628285 -0.0793425195924451
thorax -11.03668675530079 2.112506077162621 0.6804776308490039
lowerneck -11.43490658787869 6.75954282355249 4.437620095809657
upperneck 18.190976124546673 7.228574869391652 7.279293009423959
head 7.6404474664069015 4.225691581126695 2.1611278207680904
rclavicle 9.044357192952679E-16 -1.822608298526233E-15
rhumerus 8.042708793954787 -22.472588500121432 -48.50630871315539
rradius 27.896932563558998
rwrist 21.353612589952938
rhand 0.8681208782523662 7.33067560549631
rfingers 7.125020000000029
rthumb 26.484715709348425 -19.71634990609694
lclavicle 1.4102685782048342E-15 -9.30720975842654E-16
lhumerus -10.488368645648048 3.9618941980201643 51.20537547645966
lradius 35.56376479297052
lwrist -7.91101289183784
lhand -1.767248329655386 23.34745353472721
lfingers 7.125019999999976
lthumb 23.514790317449595 50.52425342128939
rfemur 59.03080199559886 -82.03918389041146 -56.22449035898225
rtibia 40.2131692674175
rfoot -18.430473709780085 -17.987950944654113
rtoes 21.645324910254917
lfemur -44.80402893945183 8.244191219539097 -27.1351574422813
ltibia 44.070341866621945
lfoot -22.79322294959711 14.940180145207506
ltoes 10.905205815974309
